PathFileType	4	(X/Y/Z)	/Users/niels/Desktop/University/Third Semester/Perception and Action/Exam/Gymnastics Motion Tracking/Code for Gym Tracking/Analyzed Data/Webcam_Backflip/id5_3_baseline_Sports2D/id5_3_baseline_Sports2D_px_person00.trc
DataRate	CameraRate	NumFrames	NumMarkers	Units	OrigDataRate	OrigDataStartFrame	OrigNumFrames
29.8125	29.8125	7	22	m	29.8125	120	160
Frame#	Time	Hip			RHip			RKnee			RAnkle			RBigToe			RSmallToe			RHeel			LHip			LKnee			LAnkle			LBigToe			LSmallToe			LHeel			Neck			Head			Nose			RShoulder			RElbow			RWrist			LShoulder			LElbow			LWrist		
		X1	Y1	Z1	X2	Y2	Z2	X3	Y3	Z3	X4	Y4	Z4	X5	Y5	Z5	X6	Y6	Z6	X7	Y7	Z7	X8	Y8	Z8	X9	Y9	Z9	X10	Y10	Z10	X11	Y11	Z11	X12	Y12	Z12	X13	Y13	Z13	X14	Y14	Z14	X15	Y15	Z15	X16	Y16	Z16	X17	Y17	Z17	X18	Y18	Z18	X19	Y19	Z19	X20	Y20	Z20	X21	Y21	Z21	X22	Y22	Z22
120	4.025157232704402	0.8941661534976022	-0.5611393291973056	0.0	0.8894148454789398	-0.5615482970528227	0.0	0.9042312503236083	-0.6649836465438123	0.0	0.9026713499769964	-0.7769395719130007	0.0	0.95054194909948	-0.7895484698293763	0.0	0.9364915325612215	-0.7953037253217646	0.0	0.8932066634893802	-0.7903428864270509	0.0	0.8995959289026209	-0.5583629826509733	0.0	0.9281434455467333	-0.6492892054709782	0.0	0.861605074132368	-0.7263885163286319	0.0	0.8883461889314992	-0.7628872427963608	0.0	0.8831988516933366	-0.7565554385034802	0.0	0.8453715449414644	-0.7323183947499533	0.0	0.9075068501631396	-0.41084073274478705	0.0	0.9513268601254979	-0.36300896564787954	0.0	0.9481781806217652	-0.40345114420975503	0.0	0.8979303637388126	-0.4275766887693657	0.0	0.869620340111699	-0.4956175165962665	0.0	0.8665778563151324	-0.5625646997188868	0.0	0.8898150129464343	-0.4210375914543956	0.0	0.8467805215151638	-0.4801273256555295	0.0	0.8388878236618116	-0.5373108710527498	0.0
121	4.058700209643606	0.8972407995192383	-0.563349514135423	0.0	0.8913745072525152	-0.5638426344146661	0.0	0.906055326806415	-0.6671567857972007	0.0	0.9023934037493551	-0.778510452915013	0.0	0.9494774931296922	-0.7906841528486723	0.0	0.9353398708211564	-0.7964078132980962	0.0	0.8933990785457494	-0.7919312994434726	0.0	0.9039849839327236	-0.5606452248427037	0.0	0.9382876979878274	-0.6483208703784215	0.0	0.8831006507956062	-0.7337149115426707	0.0	0.9164608719531951	-0.7656233503016334	0.0	0.9104813236770395	-0.7598513577891441	0.0	0.8679777869287544	-0.7430801644231138	0.0	0.9114852472438629	-0.41325856016416845	0.0	0.9566748166823396	-0.3649717617923155	0.0	0.9521978076061615	-0.40540497818858773	0.0	0.9028387697357215	-0.42952775249158986	0.0	0.8764733810036149	-0.4978294369182726	0.0	0.8758054045486441	-0.5652756563583334	0.0	0.8928815205456552	-0.4223946161324328	0.0	0.8481038991290691	-0.4805533025165316	0.0	0.8409987398007197	-0.5371137804826273	0.0
122	4.092243186582809	0.8997620047647309	-0.5673501097496422	0.0	0.8933414905389522	-0.5677632533204862	0.0	0.9078355240220175	-0.6711307382018276	0.0	0.9019530233568241	-0.7818621545191172	0.0	0.9481038146195258	-0.7930305983491792	0.0	0.9339377295347632	-0.7989154771310987	0.0	0.8934051977600198	-0.7951353260976065	0.0	0.9076028656696115	-0.5648801247576424	0.0	0.9457460580898136	-0.649961489042159	0.0	0.9032006580776907	-0.7428690087553919	0.0	0.9411243529168895	-0.7698098131586866	0.0	0.9351939822388525	-0.76465886046723	0.0	0.8897127455027773	-0.7553973852791225	0.0	0.9151627587850362	-0.41738198894497813	0.0	0.9610520355890408	-0.3685254129454707	0.0	0.955582225426463	-0.4086431884397964	0.0	0.9072610991877335	-0.43346676431718395	0.0	0.8838228887009043	-0.5024439574321835	0.0	0.886394174982254	-0.5701722400745763	0.0	0.8965742410023178	-0.4265714687572555	0.0	0.8521388179201407	-0.4854759011163966	0.0	0.8469258577661923	-0.5415756490990651	0.0
123	4.125786163522012	0.9019634174231164	-0.5726087755699059	0.0	0.8955918460957376	-0.5728429196864095	0.0	0.9097241577603659	-0.6764516349733594	0.0	0.9015124264697173	-0.7866492028159211	0.0	0.9468469158363251	-0.7964849806480301	0.0	0.9326423126111191	-0.8026503742960033	0.0	0.8933309194361654	-0.7996262736819407	0.0	0.9106395820242099	-0.570543765301638	0.0	0.9509883517296659	-0.6540633082831003	0.0	0.920635503074708	-0.7528015375717096	0.0	0.9608077785502682	-0.7748076527451435	0.0	0.9556000321584459	-0.7702928778807557	0.0	0.9089816523554554	-0.767614864001457	0.0	0.9184943745282612	-0.42287322954918716	0.0	0.9643854981398224	-0.37340028583283263	0.0	0.9583957104294307	-0.41310253542185865	0.0	0.9110201898226838	-0.43897767753377764	0.0	0.8913678362576937	-0.5089555083465995	0.0	0.8980180283751147	-0.5763949705671189	0.0	0.9005785628939947	-0.4330534267475781	0.0	0.8586547297360265	-0.49427202264589787	0.0	0.856927997901244	-0.5501766015064061	0.0
124	4.159329140461216	0.9041967746135624	-0.5786215387623367	0.0	0.898372971912063	-0.5786528694703854	0.0	0.9119138877672602	-0.6826529571686942	0.0	0.901244208343116	-0.7924315878327945	0.0	0.9461191397214201	-0.8008536239575397	0.0	0.9319414866538058	-0.8073144505147338	0.0	0.8933099650049232	-0.804942852582523	0.0	0.9133985163780919	-0.5770834760657738	0.0	0.9545818494033387	-0.6601947717097223	0.0	0.9343678417888729	-0.7627786021133934	0.0	0.9750557255099541	-0.7802837731533557	0.0	0.9707170515703699	-0.7763721063053293	0.0	0.9242793074490481	-0.7786794282802894	0.0	0.9214131053051152	-0.42930480739659804	0.0	0.9667750839664171	-0.3792492595099752	0.0	0.9607956958396304	-0.4186907379887436	0.0	0.9139892019746189	-0.4455412458079197	0.0	0.8987267232764521	-0.5166624383903479	0.0	0.910243958377532	-0.5829096897075402	0.0	0.9046102876006823	-0.4410084756644208	0.0	0.867263803496426	-0.5055092725387543	0.0	0.8709069461373473	-0.5614687115389254	0.0
125	4.192872117400419	0.9068170029984893	-0.5848876350199701	0.0	0.9017929562475497	-0.5847646722960276	0.0	0.9144953110393206	-0.6891254654789352	0.0	0.9012406606399089	-0.7985711741889062	0.0	0.9460141923479634	-0.8058098764329182	0.0	0.9320155051343071	-0.8123810024685292	0.0	0.8934184233362538	-0.8104066871735717	0.0	0.9162050571718613	-0.5839028373027403	0.0	0.9569516381355476	-0.6676845748796745	0.0	0.9438500052686201	-0.7723937542315436	0.0	0.9841526025827292	-0.78617093834054	0.0	0.9803992021330484	-0.7827978376348096	0.0	0.9347947447236082	-0.7883064070302613	0.0	0.9238990760099581	-0.43616577875779616	0.0	0.9684682123400397	-0.3855694203939393	0.0	0.9629219808189076	-0.4250547352950522	0.0	0.9162043207283452	-0.4526184916958874	0.0	0.9054944068385344	-0.5247506898731625	0.0	0.9226421156980323	-0.5888055930543571	0.0	0.9084774927586795	-0.4495058520287244	0.0	0.8772284322697558	-0.5173447022703954	0.0	0.887783049275156	-0.5734071456581055	0.0
126	4.226415094339622	0.9099941051322455	-0.5908954700042741	0.0	0.9057717180867784	-0.5906889575346583	0.0	0.9173814425042306	-0.6951786830841618	0.0	0.9014662458051556	-0.8043190786511444	0.0	0.9462696786471889	-0.8109281952119735	0.0	0.9326450669115401	-0.817209445625831	0.0	0.8936191148244247	-0.8152927594475929	0.0	0.9192194932388358	-0.5903776818983968	0.0	0.958351145910015	-0.6756603834711542	0.0	0.9492697531648476	-0.7813355180125009	0.0	0.9888633306198794	-0.7922755824908538	0.0	0.9852684433217191	-0.7893916907566514	0.0	0.9407828166912487	-0.7965382928594797	0.0	0.926021706173944	-0.442884926640903	0.0	0.9697387079550551	-0.39172107594560185	0.0	0.9648666092533614	-0.43153204483155927	0.0	0.9179303935818957	-0.4596404917572699	0.0	0.9113133779629169	-0.5323808368647264	0.0	0.9347416477653548	-0.593430554328531	0.0	0.9120455863941433	-0.45764000276766664	0.0	0.8873865292882159	-0.5280816212138826	0.0	0.9053235655301346	-0.5839866921859137	0.0
